<svg width="286" height="34" viewBox="0 0 286 34" fill="none" xmlns="http://www.w3.org/2000/svg">
<path d="M0.961767 0.399998H8.49777L11.8578 24.448H11.9538L15.3138 0.399998H22.8498V34H17.8578V8.56H17.7618L13.9218 34H9.50577L5.66577 8.56H5.56977V34H0.961767V0.399998ZM32.5499 0.399998H46.9499V5.2H37.8299V14.08H45.0779V18.88H37.8299V29.2H46.9499V34H32.5499V0.399998ZM55.7474 0.399998H63.8114C66.4354 0.399998 68.4034 1.104 69.7154 2.512C71.0274 3.92 71.6834 5.984 71.6834 8.704V25.696C71.6834 28.416 71.0274 30.48 69.7154 31.888C68.4034 33.296 66.4354 34 63.8114 34H55.7474V0.399998ZM63.7154 29.2C64.5794 29.2 65.2354 28.944 65.6834 28.432C66.1634 27.92 66.4034 27.088 66.4034 25.936V8.464C66.4034 7.312 66.1634 6.48 65.6834 5.968C65.2354 5.456 64.5794 5.2 63.7154 5.2H61.0274V29.2H63.7154ZM81.0074 0.399998H86.2874V34H81.0074V0.399998ZM100.082 0.399998H107.234L112.706 34H107.426L106.466 27.328V27.424H100.466L99.5058 34H94.6098L100.082 0.399998ZM105.842 22.864L103.49 6.256H103.394L101.09 22.864H105.842ZM134.475 0.399998H142.443C145.163 0.399998 147.147 1.04 148.395 2.32C149.643 3.568 150.267 5.504 150.267 8.128V9.472C150.267 11.2 149.979 12.608 149.403 13.696C148.859 14.784 148.011 15.568 146.859 16.048V16.144C149.483 17.04 150.795 19.376 150.795 23.152V26.032C150.795 28.624 150.107 30.608 148.731 31.984C147.387 33.328 145.403 34 142.779 34H134.475V0.399998ZM141.819 14.08C142.875 14.08 143.659 13.808 144.171 13.264C144.715 12.72 144.987 11.808 144.987 10.528V8.656C144.987 7.44 144.763 6.56 144.315 6.016C143.899 5.472 143.227 5.2 142.299 5.2H139.755V14.08H141.819ZM142.779 29.2C143.707 29.2 144.395 28.96 144.843 28.48C145.291 27.968 145.515 27.104 145.515 25.888V22.96C145.515 21.424 145.243 20.368 144.699 19.792C144.187 19.184 143.323 18.88 142.107 18.88H139.755V29.2H142.779ZM163.739 19.696L157.355 0.399998H162.971L166.571 12.736H166.667L170.267 0.399998H175.403L169.019 19.696V34H163.739V19.696ZM196.989 0.399998H204.813C207.533 0.399998 209.517 1.04 210.765 2.32C212.013 3.568 212.637 5.504 212.637 8.128V10.192C212.637 13.68 211.485 15.888 209.181 16.816V16.912C210.461 17.296 211.357 18.08 211.869 19.264C212.413 20.448 212.685 22.032 212.685 24.016V29.92C212.685 30.88 212.717 31.664 212.781 32.272C212.845 32.848 213.005 33.424 213.261 34H207.885C207.693 33.456 207.565 32.944 207.501 32.464C207.437 31.984 207.405 31.12 207.405 29.872V23.728C207.405 22.192 207.149 21.12 206.637 20.512C206.157 19.904 205.309 19.6 204.093 19.6H202.269V34H196.989V0.399998ZM204.189 14.8C205.245 14.8 206.029 14.528 206.541 13.984C207.085 13.44 207.357 12.528 207.357 11.248V8.656C207.357 7.44 207.133 6.56 206.685 6.016C206.269 5.472 205.597 5.2 204.669 5.2H202.269V14.8H204.189ZM226.207 19.696L219.823 0.399998H225.439L229.039 12.736H229.135L232.735 0.399998H237.871L231.487 19.696V34H226.207V19.696ZM247.886 0.399998H255.038L260.51 34H255.23L254.27 27.328V27.424H248.27L247.31 34H242.414L247.886 0.399998ZM253.646 22.864L251.294 6.256H251.198L248.894 22.864H253.646ZM268.832 0.399998H275.456L280.592 20.512H280.688V0.399998H285.392V34H279.968L273.632 9.472H273.536V34H268.832V0.399998Z" fill="#515A57"/>
</svg>
