<svg width="286" height="34" viewBox="0 0 286 34" fill="none" xmlns="http://www.w3.org/2000/svg">
<path d="M0.968 0.399998H8.504L11.864 24.448H11.96L15.32 0.399998H22.856V34H17.864V8.56H17.768L13.928 34H9.512L5.672 8.56H5.576V34H0.968V0.399998ZM32.5561 0.399998H46.9561V5.2H37.8361V14.08H45.0841V18.88H37.8361V29.2H46.9561V34H32.5561V0.399998ZM55.7536 0.399998H63.8176C66.4416 0.399998 68.4096 1.104 69.7216 2.512C71.0336 3.92 71.6896 5.984 71.6896 8.704V25.696C71.6896 28.416 71.0336 30.48 69.7216 31.888C68.4096 33.296 66.4416 34 63.8176 34H55.7536V0.399998ZM63.7216 29.2C64.5856 29.2 65.2416 28.944 65.6896 28.432C66.1696 27.92 66.4096 27.088 66.4096 25.936V8.464C66.4096 7.312 66.1696 6.48 65.6896 5.968C65.2416 5.456 64.5856 5.2 63.7216 5.2H61.0336V29.2H63.7216ZM81.0136 0.399998H86.2936V34H81.0136V0.399998ZM100.088 0.399998H107.24L112.712 34H107.432L106.472 27.328V27.424H100.472L99.512 34H94.616L100.088 0.399998ZM105.848 22.864L103.496 6.256H103.4L101.096 22.864H105.848ZM134.481 0.399998H142.449C145.169 0.399998 147.153 1.04 148.401 2.32C149.649 3.568 150.273 5.504 150.273 8.128V9.472C150.273 11.2 149.985 12.608 149.409 13.696C148.865 14.784 148.017 15.568 146.865 16.048V16.144C149.489 17.04 150.801 19.376 150.801 23.152V26.032C150.801 28.624 150.113 30.608 148.737 31.984C147.393 33.328 145.409 34 142.785 34H134.481V0.399998ZM141.825 14.08C142.881 14.08 143.665 13.808 144.177 13.264C144.721 12.72 144.993 11.808 144.993 10.528V8.656C144.993 7.44 144.769 6.56 144.321 6.016C143.905 5.472 143.233 5.2 142.305 5.2H139.761V14.08H141.825ZM142.785 29.2C143.713 29.2 144.401 28.96 144.849 28.48C145.297 27.968 145.521 27.104 145.521 25.888V22.96C145.521 21.424 145.249 20.368 144.705 19.792C144.193 19.184 143.329 18.88 142.113 18.88H139.761V29.2H142.785ZM163.745 19.696L157.361 0.399998H162.977L166.577 12.736H166.673L170.273 0.399998H175.409L169.025 19.696V34H163.745V19.696ZM196.995 0.399998H204.819C207.539 0.399998 209.523 1.04 210.771 2.32C212.019 3.568 212.643 5.504 212.643 8.128V10.192C212.643 13.68 211.491 15.888 209.187 16.816V16.912C210.467 17.296 211.363 18.08 211.875 19.264C212.419 20.448 212.691 22.032 212.691 24.016V29.92C212.691 30.88 212.723 31.664 212.787 32.272C212.851 32.848 213.011 33.424 213.267 34H207.891C207.699 33.456 207.571 32.944 207.507 32.464C207.443 31.984 207.411 31.12 207.411 29.872V23.728C207.411 22.192 207.155 21.12 206.643 20.512C206.163 19.904 205.315 19.6 204.099 19.6H202.275V34H196.995V0.399998ZM204.195 14.8C205.251 14.8 206.035 14.528 206.547 13.984C207.091 13.44 207.363 12.528 207.363 11.248V8.656C207.363 7.44 207.139 6.56 206.691 6.016C206.275 5.472 205.603 5.2 204.675 5.2H202.275V14.8H204.195ZM226.213 19.696L219.829 0.399998H225.445L229.045 12.736H229.141L232.741 0.399998H237.877L231.493 19.696V34H226.213V19.696ZM247.892 0.399998H255.044L260.516 34H255.236L254.276 27.328V27.424H248.276L247.316 34H242.42L247.892 0.399998ZM253.652 22.864L251.3 6.256H251.204L248.9 22.864H253.652ZM268.838 0.399998H275.462L280.598 20.512H280.694V0.399998H285.398V34H279.974L273.638 9.472H273.542V34H268.838V0.399998Z" fill="#72827C"/>
</svg>
